<?xml version="1.0" encoding="utf-8"?>
<!-- Generator: Adobe Illustrator 16.0.0, SVG Export Plug-In . SVG Version: 6.00 Build 0)  -->
<!DOCTYPE svg PUBLIC "-//W3C//DTD SVG 1.1//EN" "http://www.w3.org/Graphics/SVG/1.1/DTD/svg11.dtd">
<svg version="1.1" id="Layer_1" xmlns="http://www.w3.org/2000/svg" xmlns:xlink="http://www.w3.org/1999/xlink" x="0px" y="0px"
	 width="595.279px" height="841.89px" viewBox="0 0 595.279 841.89" enable-background="new 0 0 595.279 841.89"
	 xml:space="preserve">
<g>
	<path fill="none" stroke="#EC2227" stroke-miterlimit="10" d="M143.034,100.683L97.702,55.016H74.077c0,0-17.625-0.458-5.875-20"/>
	<path fill="none" stroke="#EC2227" stroke-miterlimit="10" d="M111.577,96.308l28.75,27.875c0,0,10.874,9.083,2.707,17.25
		c-7.332,7.625-15.457-2-15.457-2l-29.75-29.875"/>
	<path fill="none" stroke="#EC2227" stroke-miterlimit="10" d="M126.892,138.744c0,0,0.728,7.189-5.673,10.316
		c-5.173,2.527-7.767,2.623-14.517-4.127c0,0-2.271,6.318-9.5,5.625c-6.084-0.584-7.195-5.375-7.195-5.375s-13.68,8-13.972-6.439
		c0,0-13.333,0.939-11-12.561c0,0-14.917,3-12-11.417c0,0-14.5,2.167-10.833-11.333c1-3.25,3.25-5.667,3.25-5.667l-23.75-26.75
		l42-41l4.5,5l50.833-5.667l3.334-3.333l39.332,38.333c0,0,0,17.667-18.667,36.334l8.667,8.666c0,0,6,12.084-11.374,14.834"/>
	<path fill="none" stroke="#EC2227" stroke-miterlimit="10" d="M45.452,97.766c0,0,7.75-7.458,14.375-0.708
		s-1.083,12.541-6.792,17.708"/>
	<path fill="none" stroke="#EC2227" stroke-miterlimit="10" d="M62.381,103.433c0,0,5.842-5.773,12.298,0.13
		c7.648,6.995-2.06,15.12-9.643,22.62"/>
	<path fill="none" stroke="#EC2227" stroke-miterlimit="10" d="M75.515,114.766c0,0,15.688,2.042,10.812,12.042
		c-4.475,7.109-10.292,11.936-10.292,11.936"/>
	<path fill="none" stroke="#EC2227" stroke-miterlimit="10" d="M87.091,124.686c0,0,11.768,2.853,6.986,14.058
		c-1.585,3.715-4.07,6.439-4.07,6.439"/>
	<line fill="none" stroke="#EC2227" stroke-miterlimit="10" x1="106.702" y1="144.933" x2="95.066" y2="132.162"/>
</g>
</svg>
