<?xml version="1.0" encoding="utf-8"?>
<!-- Generator: Adobe Illustrator 16.0.0, SVG Export Plug-In . SVG Version: 6.00 Build 0)  -->
<!DOCTYPE svg PUBLIC "-//W3C//DTD SVG 1.1//EN" "http://www.w3.org/Graphics/SVG/1.1/DTD/svg11.dtd">
<svg version="1.1" id="Layer_1" xmlns="http://www.w3.org/2000/svg" xmlns:xlink="http://www.w3.org/1999/xlink" x="0px" y="0px"
	 width="595.279px" height="841.89px" viewBox="0 0 595.279 841.89" enable-background="new 0 0 595.279 841.89"
	 xml:space="preserve">
<path fill="none" stroke="#EC2227" stroke-miterlimit="10" d="M44.572,55.21c6.766-12.455,18.049-22.1,31.65-26.737"/>
<path fill="none" stroke="#EC2227" stroke-miterlimit="10" d="M73.171,135.027c-12.837-5.219-23.338-14.992-29.496-27.314"/>
<path fill="none" stroke="#EC2227" stroke-miterlimit="10" d="M145.687,107.306c-6.333,12.934-17.43,23.105-31.003,28.234"/>
<path fill="none" stroke="#EC2227" stroke-miterlimit="10" d="M110.223,27.623c14.195,4.052,26.125,13.482,33.441,25.946"/>
<path fill="none" stroke="#EC2227" stroke-miterlimit="10" d="M102.387,35.377c-1.295,4.121-4.688,7.068-8.681,7.068
	c-3.837,0-7.128-2.716-8.528-6.583c-5.192,2.986-8.683,8.447-8.683,14.708c0,0.129,0.017,0.253,0.02,0.382h35.421
	c0.004-0.128,0.021-0.253,0.021-0.382C111.957,43.957,108.07,38.23,102.387,35.377z"/>
<path fill="none" stroke="#EC2227" stroke-miterlimit="10" d="M156.078,85.08c-1.295,4.121-4.688,7.068-8.682,7.068
	c-3.837,0-7.128-2.717-8.527-6.582c-5.193,2.984-8.684,8.445-8.684,14.707c0,0.129,0.018,0.254,0.021,0.383h35.421
	c0.004-0.129,0.021-0.254,0.021-0.383C165.647,93.66,161.759,87.933,156.078,85.08z"/>
<path fill="none" stroke="#EC2227" stroke-miterlimit="10" d="M102.387,134.869c-1.295,4.121-4.688,7.068-8.681,7.068
	c-3.837,0-7.128-2.715-8.528-6.582c-5.192,2.986-8.683,8.445-8.683,14.707c0,0.129,0.017,0.254,0.02,0.383h35.421
	c0.004-0.129,0.021-0.254,0.021-0.383C111.957,143.449,108.07,137.722,102.387,134.869z"/>
<path fill="none" stroke="#EC2227" stroke-miterlimit="10" d="M87.308,129.949c-1.757-1.957-2.851-4.71-2.851-7.762
	c0-5.936,4.142-10.75,9.25-10.75s9.25,4.814,9.25,10.75c0,2.969-1.035,5.656-2.709,7.602"/>
<path fill="none" stroke="#EC2227" stroke-miterlimit="10" d="M141.031,79.857c-1.757-1.957-2.851-4.71-2.851-7.762
	c0-5.936,4.142-10.75,9.25-10.75s9.25,4.814,9.25,10.75c0,2.969-1.035,5.656-2.709,7.602"/>
<path fill="none" stroke="#EC2227" stroke-miterlimit="10" d="M87.308,30.121c-1.757-1.957-2.851-4.71-2.851-7.762
	c0-5.936,4.142-10.75,9.25-10.75s9.25,4.814,9.25,10.75c0,2.969-1.035,5.656-2.709,7.602"/>
<path fill="none" stroke="#EC2227" stroke-miterlimit="10" d="M32.104,79.379c-1.757-1.957-2.851-4.71-2.851-7.762
	c0-5.936,4.142-10.75,9.25-10.75s9.25,4.814,9.25,10.75c0,2.969-1.035,5.656-2.709,7.602"/>
<path fill="none" stroke="#EC2227" stroke-miterlimit="10" d="M47.387,85.08c-1.295,4.121-4.688,7.068-8.681,7.068
	c-3.837,0-7.128-2.715-8.528-6.582c-5.192,2.986-8.683,8.445-8.683,14.707c0,0.129,0.017,0.254,0.021,0.383h35.421
	c0.004-0.129,0.021-0.254,0.021-0.383C56.957,93.66,53.07,87.933,47.387,85.08z"/>
</svg>
