<?xml version="1.0" encoding="utf-8"?>
<!-- Generator: Adobe Illustrator 16.0.0, SVG Export Plug-In . SVG Version: 6.00 Build 0)  -->
<!DOCTYPE svg PUBLIC "-//W3C//DTD SVG 1.1//EN" "http://www.w3.org/Graphics/SVG/1.1/DTD/svg11.dtd">
<svg version="1.1" id="Layer_1" xmlns="http://www.w3.org/2000/svg" xmlns:xlink="http://www.w3.org/1999/xlink" x="0px" y="0px"
	 width="595.279px" height="841.89px" viewBox="0 0 595.279 841.89" enable-background="new 0 0 595.279 841.89"
	 xml:space="preserve">
<polyline fill="none" stroke="#EC2227" stroke-miterlimit="10" points="21.167,32.152 54.5,25.152 62.5,11.152 91.5,24.486 
	120.5,11.152 128.834,24.819 162.834,32.152 "/>
<polyline fill="none" stroke="#EC2227" stroke-miterlimit="10" points="54.5,25.152 75.5,46.986 91.5,24.486 108.25,46.986 
	128.834,24.819 "/>
<polyline fill="none" stroke="#EC2227" stroke-miterlimit="10" points="79.323,41.61 82.5,46.986 100.75,46.986 104.248,41.61 "/>
<polyline fill="none" stroke="#EC2227" stroke-miterlimit="10" points="83.75,46.986 76.5,133.736 91.667,149.987 107,133.486 
	99.25,46.986 "/>
<path fill="none" stroke="#EC2227" stroke-miterlimit="10" d="M69.235,95.624c0,5.523-4.478,10-10,10h-15.75
	c-5.523,0-10-4.477-10-10v-15.75c0-5.523,4.477-10,10-10h15.75c5.522,0,10,4.477,10,10V95.624z"/>
<circle fill="#EC2227" cx="51.75" cy="83.986" r="2.5"/>
<polyline fill="none" stroke="#EC2227" stroke-miterlimit="10" points="33.485,83.986 51.36,91.986 69.235,84.236 "/>
<path fill="none" stroke="#EC2227" stroke-miterlimit="10" d="M114.592,74.486c-0.062,0.455-0.106,4.915-0.106,5.387v15.75
	c0,5.523,4.478,10,10,10h15.75c5.521,0,10-4.477,10-10v-15.75c0-0.472-0.045-4.932-0.107-5.387H114.592z"/>
<path fill="none" stroke="#EC2227" stroke-miterlimit="10" d="M135.25,74.486V63.611c0-2.692-2.184-4.875-4.875-4.875
	c-2.692,0-4.875,2.183-4.875,4.875v10.875H135.25z"/>
<path fill="#EC2227" d="M135.25,66.111c0,0,8.625-1.125,8.625,8.375h-4.312c0,0,0.312-4.208-4.688-4.208L135.25,66.111z"/>
<path fill="#EC2227" d="M139.375,74.236V86.68c0,1.312,1.008,2.375,2.25,2.375s2.25-1.063,2.25-2.375V74.236H139.375z"/>
<line fill="none" stroke="#EC2227" stroke-miterlimit="10" x1="87.079" y1="30.704" x2="102.207" y2="44.747"/>
<line fill="none" stroke="#EC2227" stroke-miterlimit="10" x1="81.731" y1="38.224" x2="91.667" y2="46.986"/>
<line fill="none" stroke="#EC2227" stroke-miterlimit="10" x1="89.25" y1="46.986" x2="100.121" y2="57.856"/>
<line fill="none" stroke="#EC2227" stroke-miterlimit="10" x1="83.424" y1="50.875" x2="101.198" y2="68.727"/>
<line fill="none" stroke="#EC2227" stroke-miterlimit="10" x1="82.59" y1="60.849" x2="102.207" y2="80.673"/>
<line fill="none" stroke="#EC2227" stroke-miterlimit="10" x1="81.656" y1="72.042" x2="103.454" y2="93.908"/>
<line fill="none" stroke="#EC2227" stroke-miterlimit="10" x1="80.841" y1="81.786" x2="104.54" y2="106.028"/>
<line fill="none" stroke="#EC2227" stroke-miterlimit="10" x1="79.964" y1="92.291" x2="105.631" y2="118.218"/>
<line fill="none" stroke="#EC2227" stroke-miterlimit="10" x1="79.121" y1="102.376" x2="106.69" y2="130.046"/>
<line fill="none" stroke="#EC2227" stroke-miterlimit="10" x1="78.172" y1="113.727" x2="102.626" y2="138.193"/>
<line fill="none" stroke="#EC2227" stroke-miterlimit="10" x1="77.337" y1="123.724" x2="97.356" y2="143.862"/>
</svg>
