<?xml version="1.0" encoding="utf-8"?>
<!-- Generator: Adobe Illustrator 19.0.0, SVG Export Plug-In . SVG Version: 6.00 Build 0)  -->
<svg version="1.1" id="Layer_1" xmlns="http://www.w3.org/2000/svg" xmlns:xlink="http://www.w3.org/1999/xlink" x="0px" y="0px"
	 viewBox="-243 359 125 75" style="enable-background:new -243 359 125 75;" xml:space="preserve">
<style type="text/css">
	.st0{fill:#EC1C24;}
	.st1{fill:#0080C5;}
	.st2{fill:#FFFFFF;}
</style>
<g id="Colour_Logo">
	<path class="st0" d="M-173,400.2c-2.5,5.5-9.4,5.2-11.5-0.5c-0.1-0.3-0.2-0.7-0.3-1c-0.4-0.1-0.8-0.1-1.2-0.2
		c-0.4-0.1-0.8-0.1-1.2-0.2c-0.4-0.1-0.8-0.1-1.2-0.2c-0.4-0.1-0.8-0.1-1.1-0.2c-2.1,6.4-7.6,3.7-9.5-0.4c-0.7-1.4-1.5-4.2,0-7
		c-0.6-1.4-1.4-3.4-1.9-4.8c-4.3,1.3-5.4-5.5-2.7-10.2c2.6-4.4,5.3-3.2,6.2-2.3c2.1,2.1,1.6,7-0.9,10.4c0.6,1.5,1.3,3.5,1.9,4.9
		c0.8-0.1,4.9-0.6,6.8,5.4c0.4,0.1,0.8,0.1,1.2,0.2c0.4,0.1,0.8,0.1,1.2,0.2c0.4,0.1,0.8,0.1,1.2,0.2s0.8,0.1,1.2,0.2
		c3-6.2,10.1-4.4,11.8,0.2C-172.1,396.6-172.2,398.5-173,400.2"/>
	<path class="st1" d="M-160.4,386c-2.3,5.8-10,5.9-12.5,0.1c-0.3-0.6-0.5-1.6-0.6-2.2c-0.5-0.1-0.9-0.2-1.4-0.3
		c-0.5-0.1-0.9-0.2-1.4-0.2c-0.5-0.1-0.9-0.2-1.4-0.2c-0.5-0.1-0.9-0.1-1.4-0.2c-4,6.9-11.4,4.6-12.6-0.8
		c-1.4-6.4,5.8-11.8,10.8-8.1c2,1.4,2.4,3.5,2.6,4.6c0.5,0.1,0.9,0.1,1.4,0.2c0.5,0.1,0.9,0.1,1.4,0.2s0.9,0.2,1.4,0.2
		c0.5,0.1,0.9,0.2,1.4,0.2c0.6-1.1,1.1-1.7,2-2.4c-0.6-1.6-1.4-3.6-2-5.2c-0.6,0-6,0-6.8-5.2c-0.4,0-0.9-0.1-1.3-0.1
		c-0.4,0-0.8-0.1-1.3-0.1s-0.8-0.1-1.2-0.1c-0.4,0-0.8-0.1-1.2-0.1c-4.2,5.2-10.1,4.7-10.6,1.3c-0.6-4.3,6.8-9.4,10.5-7.2
		c1.3,0.8,1.3,2.1,1.3,2.8c0.4,0,0.8,0,1.2,0.1c0.4,0,0.8,0.1,1.2,0.1c0.4,0,0.8,0.1,1.2,0.1c0.4,0,0.8,0.1,1.2,0.1
		c0.9-1.1,1.9-1.8,3.1-2.2c2.6-0.9,7.3-0.3,8.6,3.9c0.5,1.9-0.2,3.9-2.1,5.3c0.6,1.5,1.5,3.5,2,5.1
		C-161.9,375.7-158.5,381.1-160.4,386"/>
	<g id="TEXT">
		<path class="st2" d="M-229.2,423.4c-0.4,2.9-1.8,4-5,4h-3.7c-1.9,0-3-0.4-3.9-1.2c-0.9-0.8-1.2-1.9-1.2-3.8v-3.4
			c0-1.9,0.3-3,1.2-3.8c0.9-0.9,2-1.2,3.9-1.2h3.7c3.3,0,4.7,1.1,5,4l-2.7,0.4c-0.1-0.7-0.2-1.1-0.5-1.4c-0.4-0.4-0.9-0.5-2.5-0.5
			h-2.3c-1.6,0-2.1,0.1-2.5,0.5c-0.4,0.4-0.5,1-0.5,2.5v2.3c0,1.6,0.1,2.1,0.5,2.5c0.4,0.4,0.9,0.5,2.5,0.5h2.3
			c1.6,0,2.1-0.1,2.5-0.5c0.3-0.3,0.4-0.7,0.5-1.4L-229.2,423.4z"/>
		<path class="st2" d="M-212.9,422.4c0,1.9-0.3,3-1.2,3.8c-0.9,0.9-2,1.2-3.9,1.2h-3.7c-1.9,0-3-0.4-3.9-1.2
			c-0.9-0.8-1.2-1.9-1.2-3.8v-3.4c0-1.9,0.3-3,1.2-3.8c0.9-0.9,2-1.2,3.9-1.2h3.7c1.9,0,3,0.4,3.9,1.2c0.9,0.8,1.2,1.9,1.2,3.8
			V422.4z M-224,421.9c0,1.6,0.1,2.1,0.5,2.5c0.4,0.4,0.9,0.5,2.5,0.5h2.3c1.6,0,2.1-0.1,2.5-0.5c0.4-0.4,0.5-1,0.5-2.5v-2.3
			c0-1.6-0.1-2.1-0.5-2.5c-0.4-0.4-0.9-0.5-2.5-0.5h-2.3c-1.6,0-2.1,0.1-2.5,0.5c-0.4,0.4-0.5,1-0.5,2.5V421.9z"/>
		<path class="st2" d="M-190.6,427.5v-7.9c0-1.6-0.1-2.1-0.5-2.5c-0.4-0.4-0.9-0.5-2.3-0.5h-1.1c-1.4,0-2,0.1-2.3,0.5
			c-0.4,0.4-0.5,1-0.5,2.5v7.9h-2.7v-7.9c0-1.6-0.1-2.1-0.5-2.5c-0.4-0.4-0.9-0.5-2.5-0.5h-3.8v10.9h-2.7V414h6.7
			c2.1,0,3.2,0.4,4.1,1.5c0.9-1.1,2-1.5,4.1-1.5h1.7c1.9,0,3,0.4,3.9,1.2c0.9,0.8,1.2,1.9,1.2,3.8v8.4H-190.6z"/>
		<path class="st2" d="M-176.2,414c1.9,0,3,0.4,3.9,1.2c0.9,0.8,1.2,1.9,1.2,3.8v3.4c0,1.9-0.3,3-1.2,3.8c-0.9,0.9-2,1.2-3.9,1.2
			h-5.7v5h-2.7V414H-176.2z M-176.9,424.9c1.6,0,2.1-0.1,2.5-0.5c0.4-0.4,0.5-1,0.5-2.5v-2.3c0-1.6-0.1-2.1-0.5-2.5
			c-0.4-0.4-0.9-0.5-2.5-0.5h-5v8.4L-176.9,424.9L-176.9,424.9z"/>
		<path class="st2" d="M-154.5,423.5c-0.5,2.9-1.8,4-5,4h-3.7c-1.9,0-3-0.4-3.9-1.2s-1.2-1.9-1.2-3.8v-3.4c0-1.9,0.3-3,1.2-3.8
			c0.9-0.9,2-1.2,3.9-1.2h3.7c1.9,0,3,0.4,3.9,1.2c0.9,0.8,1.2,1.9,1.2,3.9v2.5h-11.1v0.4c0,1.6,0.1,2.1,0.5,2.5
			c0.4,0.4,0.9,0.5,2.5,0.5h2.3c1.6,0,2.1-0.1,2.5-0.5c0.3-0.3,0.4-0.7,0.5-1.3L-154.5,423.5z M-157.2,419.2c0-2.4-0.4-2.8-3-2.8
			h-2.3c-2.7,0-3,0.3-3,2.8H-157.2z"/>
		<path class="st2" d="M-134.1,427.5c-1.9,0-3-0.4-3.9-1.2c-0.9-0.8-1.2-1.9-1.2-3.8v-3.4c0-1.9,0.3-3,1.2-3.8
			c0.9-0.9,2-1.2,3.9-1.2h8.4v13.4H-134.1z M-133.4,416.5c-1.6,0-2.1,0.1-2.5,0.5c-0.4,0.4-0.5,1-0.5,2.5v2.3c0,1.6,0.1,2.1,0.5,2.5
			c0.4,0.4,0.9,0.5,2.5,0.5h5v-8.4L-133.4,416.5L-133.4,416.5z"/>
		<path class="st2" d="M-144.8,424.9c-2.5,0.1-3-0.4-3-2.5v-5.9h5.7l0.3-2.5h-6.1v-3.4h-2.7v3.4h-1.8v2.5h1.8v5.9
			c0,1.9,0.3,3,1.2,3.8c0.9,0.9,2,1.2,3.9,1.2h4.5v-2.5C-141,424.9-144.8,424.9-144.8,424.9z"/>
		<g>
			<path class="st2" d="M-122.4,416.5h-0.4v-2.1h-1.1V414h2.5v0.4h-1.1V416.5z"/>
			<path class="st2" d="M-118.5,414h0.4v2.5h-0.4v-2l-1,1l-1-1v2h-0.4V414h0.4l1,1L-118.5,414z"/>
		</g>
	</g>
</g>
</svg>
