<?xml version="1.0" encoding="utf-8"?>
<!-- Generator: Adobe Illustrator 16.0.0, SVG Export Plug-In . SVG Version: 6.00 Build 0)  -->
<!DOCTYPE svg PUBLIC "-//W3C//DTD SVG 1.1//EN" "http://www.w3.org/Graphics/SVG/1.1/DTD/svg11.dtd">
<svg version="1.1" id="Layer_1" xmlns="http://www.w3.org/2000/svg" xmlns:xlink="http://www.w3.org/1999/xlink" x="0px" y="0px"
	 width="595.279px" height="841.89px" viewBox="0 0 595.279 841.89" enable-background="new 0 0 595.279 841.89"
	 xml:space="preserve">
<g id="Layer_14">
	<polyline fill="none" stroke="#ED1C24" stroke-miterlimit="10" points="94.474,136.472 94.474,149.805 21.14,149.805 21.14,83.472 
		94.474,83.472 94.474,131.805 	"/>
</g>
<g id="Layer_13">
	<polyline fill="none" stroke="#ED1C24" stroke-miterlimit="10" points="45.474,112.75 31.807,121.472 45.474,129.805 	"/>
</g>
<g id="Layer_12">
	<polyline fill="none" stroke="#ED1C24" stroke-miterlimit="10" points="69.807,112.75 83.473,121.472 69.807,129.805 	"/>
</g>
<g id="Layer_11">
	<line fill="none" stroke="#ED1C24" stroke-miterlimit="10" x1="63.474" y1="112.75" x2="51.807" y2="129.805"/>
</g>
<g id="Layer_10">
	<line fill="none" stroke="#ED1C24" stroke-miterlimit="10" x1="21.14" y1="93.138" x2="94.474" y2="93.138"/>
</g>
<g id="Layer_9">
	<line fill="none" stroke="#ED1C24" stroke-miterlimit="10" x1="68.14" y1="93.138" x2="68.14" y2="83.472"/>
</g>
<path fill="none" stroke="#ED1C24" stroke-miterlimit="10" d="M73.276,89.93c-0.897,0-1.625-0.728-1.625-1.625
	s0.728-1.625,1.625-1.625s1.625,0.728,1.625,1.625"/>
<path fill="none" stroke="#ED1C24" stroke-miterlimit="10" d="M81.276,89.93c-0.897,0-1.625-0.728-1.625-1.625
	s0.728-1.625,1.625-1.625s1.625,0.728,1.625,1.625"/>
<path fill="none" stroke="#ED1C24" stroke-miterlimit="10" d="M89.276,89.93c-0.897,0-1.625-0.728-1.625-1.625
	s0.728-1.625,1.625-1.625s1.625,0.728,1.625,1.625"/>
</svg>
