<?xml version="1.0" encoding="utf-8"?>
<!-- Generator: Adobe Illustrator 16.0.0, SVG Export Plug-In . SVG Version: 6.00 Build 0)  -->
<!DOCTYPE svg PUBLIC "-//W3C//DTD SVG 1.1//EN" "http://www.w3.org/Graphics/SVG/1.1/DTD/svg11.dtd">
<svg version="1.1" id="Layer_1" xmlns="http://www.w3.org/2000/svg" xmlns:xlink="http://www.w3.org/1999/xlink" x="0px" y="0px"
	 width="595.279px" height="841.89px" viewBox="0 0 595.279 841.89" enable-background="new 0 0 595.279 841.89"
	 xml:space="preserve">
<g id="Layer_10">
	<path fill="none" stroke="#ED1C24" stroke-miterlimit="10" d="M77.084,106.51c0,15.372-12.461,26.834-27.833,26.834
		c-15.373,0-27.834-11.462-27.834-26.834s12.461-27.833,27.834-27.833C64.623,78.677,77.084,91.138,77.084,106.51z"/>
</g>
<g id="Layer_9">
	<polyline fill="none" stroke="#ED1C24" stroke-miterlimit="10" points="40.06,131.901 40.06,137.344 40.06,141.844 43.417,146.177 
		55.584,146.177 58.917,141.844 58.917,131.743 	"/>
</g>
<g id="Layer_7">
	<line fill="none" stroke="#ED1C24" stroke-miterlimit="10" x1="51.084" y1="137.511" x2="40.06" y2="137.511"/>
</g>
<g id="Layer_6">
	<line fill="none" stroke="#ED1C24" stroke-miterlimit="10" x1="54.417" y1="137.511" x2="58.917" y2="137.511"/>
</g>
<g id="Layer_5">
	<path fill="none" stroke="#ED1C24" stroke-miterlimit="10" d="M53.001,146.139c0,2.071-1.68,3.75-3.75,3.75
		c-2.071,0-3.75-1.679-3.75-3.75"/>
</g>
<g id="Layer_4">
	<polygon fill="none" stroke="#ED1C24" stroke-miterlimit="10" points="51.084,90.01 38.084,107.622 48.25,107.622 46.917,124.677 
		61.75,104.01 51.084,104.01 	"/>
</g>
<g id="Layer_3">
	<line fill="none" stroke="#ED1C24" stroke-miterlimit="10" x1="54.417" y1="83.344" x2="58.917" y2="85.344"/>
</g>
<g id="Layer_2">
	<line fill="none" stroke="#ED1C24" stroke-miterlimit="10" x1="62.917" y1="87.177" x2="69.25" y2="94.177"/>
</g>
</svg>
